<svg width="31" height="31" viewBox="0 0 31 31" fill="none" xmlns="http://www.w3.org/2000/svg">
<g id="dashboard" clip-path="url(#clip0_6147_30165)">
<path id="Vector" d="M5.16667 16.7917H12.9167C13.6271 16.7917 14.2083 16.2104 14.2083 15.5V5.16667C14.2083 4.45625 13.6271 3.875 12.9167 3.875H5.16667C4.45625 3.875 3.875 4.45625 3.875 5.16667V15.5C3.875 16.2104 4.45625 16.7917 5.16667 16.7917ZM5.16667 27.125H12.9167C13.6271 27.125 14.2083 26.5437 14.2083 25.8333V20.6667C14.2083 19.9562 13.6271 19.375 12.9167 19.375H5.16667C4.45625 19.375 3.875 19.9562 3.875 20.6667V25.8333C3.875 26.5437 4.45625 27.125 5.16667 27.125ZM18.0833 27.125H25.8333C26.5437 27.125 27.125 26.5437 27.125 25.8333V15.5C27.125 14.7896 26.5437 14.2083 25.8333 14.2083H18.0833C17.3729 14.2083 16.7917 14.7896 16.7917 15.5V25.8333C16.7917 26.5437 17.3729 27.125 18.0833 27.125ZM16.7917 5.16667V10.3333C16.7917 11.0437 17.3729 11.625 18.0833 11.625H25.8333C26.5437 11.625 27.125 11.0437 27.125 10.3333V5.16667C27.125 4.45625 26.5437 3.875 25.8333 3.875H18.0833C17.3729 3.875 16.7917 4.45625 16.7917 5.16667Z" fill="#5C459B"/>
</g>
<defs>
<clipPath id="clip0_6147_30165">
<rect width="31" height="31" fill="#5C459B"/>
</clipPath>
</defs>
</svg>
