<svg width="28" height="28" viewBox="0 0 28 28" fill="none" xmlns="http://www.w3.org/2000/svg">
<g id="Frame 1639">
<path id="Vector" d="M17.8906 3.11121H5.44618C5.03362 3.11121 4.63796 3.27509 4.34624 3.56682C4.05451 3.85854 3.89063 4.2542 3.89062 4.66676V23.3334C3.89063 23.746 4.05451 24.1416 4.34624 24.4334C4.63796 24.7251 5.03362 24.889 5.44618 24.889H17.8906C18.3032 24.889 18.6988 24.7251 18.9906 24.4334C19.2823 24.1416 19.4462 23.746 19.4462 23.3334V18.6668H12.1584C11.9521 18.6668 11.7543 18.5848 11.6084 18.439C11.4626 18.2931 11.3806 18.0953 11.3806 17.889C11.3806 17.6827 11.4626 17.4849 11.6084 17.339C11.7543 17.1931 11.9521 17.1112 12.1584 17.1112H19.4462V4.66676C19.4462 4.2542 19.2823 3.85854 18.9906 3.56682C18.6988 3.27509 18.3032 3.11121 17.8906 3.11121Z" fill="#5C459B"/>
<path id="Vector_2" d="M21.8992 13.44C21.7504 13.3125 21.559 13.2459 21.3633 13.2535C21.1675 13.2611 20.9818 13.3422 20.8433 13.4807C20.7048 13.6193 20.6236 13.8049 20.6161 14.0007C20.6085 14.1964 20.6751 14.3878 20.8025 14.5366L23.4314 17.1111H19.4414V18.6666H23.4314L20.8025 21.3577C20.7211 21.4275 20.655 21.5133 20.6083 21.6098C20.5616 21.7062 20.5354 21.8114 20.5312 21.9185C20.5271 22.0256 20.5451 22.1324 20.5842 22.2322C20.6233 22.332 20.6827 22.4227 20.7585 22.4985C20.8343 22.5743 20.9249 22.6336 21.0247 22.6727C21.1245 22.7118 21.2313 22.7298 21.3384 22.7257C21.4456 22.7215 21.5507 22.6953 21.6472 22.6486C21.7437 22.6019 21.8295 22.5358 21.8992 22.4544L26.4414 17.9433L21.8992 13.44Z" fill="#5C459B"/>
</g>
</svg>
