<svg width="24" height="30" viewBox="0 0 24 30" fill="white" xmlns="http://www.w3.org/2000/svg">
<g id="Subtract" opacity="0.9">
<path fill-rule="evenodd" clip-rule="evenodd" d="M10.7143 0.267857C10.7143 0.119924 10.5944 0 10.4464 0H4.28571C1.91878 0 0 1.91878 0 4.28571V25.7143C0 28.0812 1.91878 30 4.28571 30H19.2857C21.6526 30 23.5714 28.0812 23.5714 25.7143V13.125C23.5714 12.9771 23.4515 12.8571 23.3036 12.8571H13.9286C12.1534 12.8571 10.7143 11.4181 10.7143 9.64286V0.267857Z" fill="white"/>
<path d="M13.0855 0.855804C13.0472 0.817737 12.9898 0.806388 12.9399 0.82702C12.89 0.847652 12.8574 0.896229 12.8571 0.950223V9.64286C12.8571 10.2346 13.3368 10.7143 13.9286 10.7143H22.6212C22.6752 10.7141 22.7238 10.6814 22.7444 10.6315C22.765 10.5816 22.7537 10.5242 22.7156 10.4859L13.0855 0.855804Z" fill="white"/>
</g>
</svg>
