<svg width="24" height="26" viewBox="0 0 24 26" fill="white" xmlns="http://www.w3.org/2000/svg">
<path id="Vector" opacity="0.9" d="M5 7C5 8.85652 5.7375 10.637 7.05025 11.9497C8.36301 13.2625 10.1435 14 12 14C13.8565 14 15.637 13.2625 16.9497 11.9497C18.2625 10.637 19 8.85652 19 7C19 5.14348 18.2625 3.36301 16.9497 2.05025C15.637 0.737498 13.8565 0 12 0C10.1435 0 8.36301 0.737498 7.05025 2.05025C5.7375 3.36301 5 5.14348 5 7ZM22 26H1C0.734783 26 0.48043 25.8946 0.292893 25.7071C0.105357 25.5196 0 25.2652 0 25V22C0 20.6739 0.526784 19.4021 1.46447 18.4645C2.40215 17.5268 3.67392 17 5 17H19C20.3261 17 21.5979 17.5268 22.5355 18.4645C23.4732 19.4021 24 20.6739 24 22V25C24 25.2652 23.8946 25.5196 23.7071 25.7071C23.5196 25.8946 23.2652 26 23 26H22Z" fill="white"/>
</svg>
