<svg width="65" height="89" viewBox="0 0 65 89" fill="none" xmlns="http://www.w3.org/2000/svg">
<mask id="mask0_6060_13956" style="mask-type:alpha" maskUnits="userSpaceOnUse" x="0" y="0" width="63" height="63">
<rect x="10.5586" y="45.2534" width="14.9343" height="48.382" transform="rotate(-135 10.5586 45.2534)" fill="#D9D9D9"/>
<rect x="25.1523" y="9.53906" width="13.4902" height="39.9931" transform="rotate(-45 25.1523 9.53906)" fill="#D9D9D9"/>
<rect x="0.0625" y="34.6299" width="13.4902" height="39.9931" transform="rotate(-45 0.0625 34.6299)" fill="#D9D9D9"/>
</mask>
<g mask="url(#mask0_6060_13956)">
<ellipse cx="25.9097" cy="37.3636" rx="46.6363" ry="49.909" fill="url(#paint0_linear_6060_13956)"/>
</g>
<mask id="mask1_6060_13956" style="mask-type:alpha" maskUnits="userSpaceOnUse" x="0" y="25" width="63" height="64">
<rect x="52.4141" y="42.7468" width="14.9343" height="48.382" transform="rotate(45 52.4141 42.7468)" fill="#D9D9D9"/>
<rect x="37.8203" y="78.4612" width="13.4902" height="39.9931" transform="rotate(135 37.8203 78.4612)" fill="#D9D9D9"/>
<rect x="62.9102" y="53.3704" width="13.4902" height="39.9931" transform="rotate(135 62.9102 53.3704)" fill="#D9D9D9"/>
</mask>
<g mask="url(#mask1_6060_13956)">
<ellipse cx="34.3614" cy="64.3633" rx="38.1817" ry="43.6363" fill="url(#paint1_linear_6060_13956)"/>
</g>
<path d="M47.5439 82.7168H48.3154L48.1104 84.0059L46.8848 88H46.2012L46.3281 86.7939L47.5439 82.7168ZM46.5918 86.8086L46.6553 88H45.8887L44.4629 82.7168H45.6445L46.5918 86.8086ZM50.3467 82.7168H51.5234L50.1025 88H49.3359L49.4336 86.7598L50.3467 82.7168ZM49.6484 86.75L49.79 88H49.1016L47.8613 84.001L47.6611 82.7168H48.4473L49.6484 86.75ZM54.1084 88H52.8975V82.7168H54.1084V88ZM52.8193 81.335C52.8193 81.1494 52.8796 80.9964 53 80.876C53.1204 80.7523 53.2881 80.6904 53.5029 80.6904C53.7178 80.6904 53.887 80.7523 54.0107 80.876C54.1344 80.9964 54.1963 81.1494 54.1963 81.335C54.1963 81.5173 54.1344 81.6702 54.0107 81.7939C53.887 81.9144 53.7178 81.9746 53.5029 81.9746C53.2881 81.9746 53.1204 81.9144 53 81.7939C52.8796 81.6702 52.8193 81.5173 52.8193 81.335ZM57.0986 88H55.8877V82.7168H57.04L57.0986 83.752V88ZM58.6904 83.8301C58.6156 83.8171 58.5358 83.8073 58.4512 83.8008C58.3698 83.7943 58.2884 83.791 58.207 83.791C57.9401 83.791 57.7171 83.8398 57.5381 83.9375C57.3623 84.0319 57.2288 84.1686 57.1377 84.3477C57.0465 84.5234 56.9928 84.7318 56.9766 84.9727L56.6982 84.9775C56.6982 84.5316 56.7568 84.1312 56.874 83.7764C56.9912 83.4215 57.167 83.14 57.4014 82.9316C57.6357 82.7233 57.9287 82.6191 58.2803 82.6191C58.3486 82.6191 58.4251 82.6257 58.5098 82.6387C58.5944 82.6517 58.6579 82.6663 58.7002 82.6826L58.6904 83.8301ZM62.2715 88.0977C61.7474 88.0977 61.2949 87.9854 60.9141 87.7607C60.5332 87.5329 60.2402 87.2269 60.0352 86.8428C59.8301 86.4554 59.7275 86.0225 59.7275 85.5439V85.3438C59.7275 84.7936 59.8317 84.3151 60.04 83.9082C60.2484 83.498 60.5332 83.1807 60.8945 82.9561C61.2591 82.7314 61.6709 82.6191 62.1299 82.6191C62.6377 82.6191 63.0592 82.7298 63.3945 82.9512C63.7298 83.1693 63.9805 83.4736 64.1465 83.8643C64.3125 84.2516 64.3955 84.7008 64.3955 85.2119V85.7344H60.3086V84.8604H63.1992V84.7676C63.1927 84.5625 63.1536 84.3704 63.082 84.1914C63.0104 84.0124 62.8965 83.8675 62.7402 83.7568C62.5872 83.6462 62.3822 83.5908 62.125 83.5908C61.8678 83.5908 61.6514 83.6641 61.4756 83.8105C61.2998 83.9538 61.1663 84.1572 61.0752 84.4209C60.984 84.6813 60.9385 84.9889 60.9385 85.3438V85.5439C60.9385 85.8434 60.9938 86.112 61.1045 86.3496C61.2152 86.5872 61.3763 86.776 61.5879 86.916C61.7995 87.0527 62.0518 87.1211 62.3447 87.1211C62.6279 87.1211 62.8786 87.0658 63.0967 86.9551C63.318 86.8444 63.5085 86.6849 63.668 86.4766L64.3027 87.1113C64.1367 87.362 63.8861 87.5898 63.5508 87.7949C63.2188 87.9967 62.7923 88.0977 62.2715 88.0977Z" fill="url(#paint2_linear_6060_13956)"/>
<defs>
<linearGradient id="paint0_linear_6060_13956" x1="66.8931" y1="37.3636" x2="-12.9539" y2="37.3636" gradientUnits="userSpaceOnUse">
<stop stop-color="#9052FC"/>
<stop offset="1" stop-color="#FF62AF"/>
</linearGradient>
<linearGradient id="paint1_linear_6060_13956" x1="67.9151" y1="64.3633" x2="2.54331" y2="64.3633" gradientUnits="userSpaceOnUse">
<stop stop-color="#9052FC"/>
<stop offset="1" stop-color="#FF62AF"/>
</linearGradient>
<linearGradient id="paint2_linear_6060_13956" x1="63.7273" y1="84.5" x2="45.75" y2="84.5" gradientUnits="userSpaceOnUse">
<stop stop-color="#9052FC"/>
<stop offset="1" stop-color="#FF62AF"/>
</linearGradient>
</defs>
</svg>
