<svg width="112" height="112" viewBox="0 0 112 112" fill="none" xmlns="http://www.w3.org/2000/svg">
<g id="carbon:checkmark-outline">
<path id="Vector" d="M49 74.949L31.5 57.4455L36.4455 52.5L49 65.051L75.5475 38.5L80.5 43.4525L49 74.949Z" fill="#5C459B"/>
<path id="Vector_2" d="M56 7C46.3087 7 36.8351 9.8738 28.7771 15.258C20.7191 20.6422 14.4386 28.2949 10.7299 37.2485C7.02123 46.2021 6.05087 56.0544 7.94154 65.5594C9.83222 75.0645 14.499 83.7955 21.3518 90.6482C28.2046 97.501 36.9355 102.168 46.4406 104.058C55.9457 105.949 65.7979 104.979 74.7515 101.27C83.7051 97.5614 91.3578 91.2809 96.742 83.2229C102.126 75.1649 105 65.6913 105 56C105 43.0044 99.8375 30.541 90.6482 21.3518C81.459 12.1625 68.9956 7 56 7ZM56 98C47.6932 98 39.5729 95.5367 32.6661 90.9217C25.7592 86.3067 20.376 79.7472 17.1971 72.0727C14.0182 64.3982 13.1865 55.9534 14.807 47.8062C16.4276 39.659 20.4277 32.1753 26.3015 26.3015C32.1753 20.4277 39.659 16.4276 47.8062 14.807C55.9534 13.1864 64.3982 14.0182 72.0727 17.1971C79.7472 20.3759 86.3067 25.7592 90.9217 32.6661C95.5368 39.5729 98 47.6932 98 56C98 67.1391 93.575 77.822 85.6985 85.6985C77.822 93.575 67.1391 98 56 98Z" fill="#5C459B"/>
</g>
</svg>
