<svg width="24" height="31" viewBox="0 0 24 31" fill="none" xmlns="http://www.w3.org/2000/svg">
<path d="M5.83333 19.6665C5.61232 19.6665 5.40036 19.5787 5.24408 19.4225C5.0878 19.2662 5 19.0542 5 18.8332C5 18.6122 5.0878 18.4002 5.24408 18.244C5.40036 18.0877 5.61232 17.9999 5.83333 17.9999H17.5C17.721 17.9999 17.933 18.0877 18.0893 18.244C18.2455 18.4002 18.3333 18.6122 18.3333 18.8332C18.3333 19.0542 18.2455 19.2662 18.0893 19.4225C17.933 19.5787 17.721 19.6665 17.5 19.6665H5.83333ZM5.83333 23.8332C5.61232 23.8332 5.40036 23.7454 5.24408 23.5891C5.0878 23.4329 5 23.2209 5 22.9999C5 22.7789 5.0878 22.5669 5.24408 22.4106C5.40036 22.2543 5.61232 22.1665 5.83333 22.1665H17.5C17.721 22.1665 17.933 22.2543 18.0893 22.4106C18.2455 22.5669 18.3333 22.7789 18.3333 22.9999C18.3333 23.2209 18.2455 23.4329 18.0893 23.5891C17.933 23.7454 17.721 23.8332 17.5 23.8332H5.83333Z" fill="#555555"/>
<path fill-rule="evenodd" clip-rule="evenodd" d="M13.6417 0.5H2.5C1.83696 0.5 1.20107 0.763392 0.732233 1.23223C0.263392 1.70107 0 2.33696 0 3V28C0 28.663 0.263392 29.2989 0.732233 29.7678C1.20107 30.2366 1.83696 30.5 2.5 30.5H20.8333C21.4964 30.5 22.1323 30.2366 22.6011 29.7678C23.0699 29.2989 23.3333 28.663 23.3333 28V10.8367C23.3332 10.2108 23.0983 9.60773 22.675 9.14667L15.485 1.31C15.2507 1.05458 14.9658 0.850667 14.6485 0.711224C14.3311 0.571781 13.9883 0.499851 13.6417 0.5ZM1.66667 3C1.66667 2.77899 1.75446 2.56702 1.91074 2.41074C2.06702 2.25446 2.27899 2.16667 2.5 2.16667H13.6417C13.7573 2.16654 13.8717 2.19048 13.9776 2.23696C14.0835 2.28345 14.1785 2.35146 14.2567 2.43667L21.4467 10.2733C21.588 10.4269 21.6665 10.628 21.6667 10.8367V28C21.6667 28.221 21.5789 28.433 21.4226 28.5893C21.2663 28.7455 21.0543 28.8333 20.8333 28.8333H2.5C2.27899 28.8333 2.06702 28.7455 1.91074 28.5893C1.75446 28.433 1.66667 28.221 1.66667 28V3Z" fill="#555555"/>
<path d="M14.168 2.33337V10.1667H22.0013" fill="#555555"/>
<path d="M8.55593 9.05473C8.79393 9.06202 9.03098 9.02144 9.253 8.93539C9.47503 8.84934 9.67751 8.71958 9.84844 8.55381C10.0194 8.38803 10.1553 8.18961 10.2481 7.97033C10.3409 7.75104 10.3887 7.51535 10.3887 7.27724C10.3887 7.03912 10.3409 6.80343 10.2481 6.58414C10.1553 6.36485 10.0194 6.16644 9.84844 6.00066C9.67751 5.83489 9.47503 5.70513 9.253 5.61908C9.03098 5.53303 8.79393 5.49245 8.55593 5.49973C8.09393 5.51388 7.65559 5.70736 7.33379 6.03916C7.012 6.37096 6.83203 6.81502 6.83203 7.27724C6.83203 7.73945 7.012 8.18351 7.33379 8.51531C7.65559 8.84711 8.09393 9.04059 8.55593 9.05473Z" fill="#555555"/>
<path fill-rule="evenodd" clip-rule="evenodd" d="M12.11 12.9069C12.11 11.0169 10.5183 9.64856 8.555 9.64856C6.59167 9.64856 5 11.0152 5 12.9069V13.7969C5.00044 13.954 5.06315 14.1045 5.17437 14.2154C5.2856 14.3263 5.43626 14.3886 5.59333 14.3886H11.5183C11.6751 14.3881 11.8254 14.3256 11.9362 14.2148C12.0471 14.1039 12.1096 13.9537 12.11 13.7969V12.9069Z" fill="#555555"/>
</svg>
